<mxfile host="Electron" agent="Mozilla/5.0 (X11; Linux x86_64) AppleWebKit/537.36 (KHTML, like Gecko) draw.io/26.1.1 Chrome/134.0.6998.205 Electron/35.3.0 Safari/537.36" version="26.1.1">
  <diagram name="Page-1" id="1SBg3AZ8-PMHOLdMnO-t">
    <mxGraphModel dx="590" dy="594" grid="1" gridSize="10" guides="1" tooltips="1" connect="1" arrows="1" fold="1" page="1" pageScale="1" pageWidth="1700" pageHeight="1100" math="0" shadow="0">
      <root>
        <mxCell id="0" />
        <mxCell id="1" parent="0" />
        <mxCell id="yk0mpAlITT_TZb8OycYt-1" value=":User" style="shape=umlLifeline;perimeter=lifelinePerimeter;whiteSpace=wrap;html=1;container=0;dropTarget=0;collapsible=0;recursiveResize=0;outlineConnect=0;portConstraint=eastwest;newEdgeStyle={&quot;edgeStyle&quot;:&quot;elbowEdgeStyle&quot;,&quot;elbow&quot;:&quot;vertical&quot;,&quot;curved&quot;:0,&quot;rounded&quot;:0};" vertex="1" parent="1">
          <mxGeometry x="40" y="60" width="100" height="300" as="geometry" />
        </mxCell>
        <mxCell id="yk0mpAlITT_TZb8OycYt-2" value="" style="html=1;points=[];perimeter=orthogonalPerimeter;outlineConnect=0;targetShapes=umlLifeline;portConstraint=eastwest;newEdgeStyle={&quot;edgeStyle&quot;:&quot;elbowEdgeStyle&quot;,&quot;elbow&quot;:&quot;vertical&quot;,&quot;curved&quot;:0,&quot;rounded&quot;:0};" vertex="1" parent="yk0mpAlITT_TZb8OycYt-1">
          <mxGeometry x="45" y="60" width="10" height="190" as="geometry" />
        </mxCell>
        <mxCell id="yk0mpAlITT_TZb8OycYt-3" value=":Looninary" style="shape=umlLifeline;perimeter=lifelinePerimeter;whiteSpace=wrap;html=1;container=0;dropTarget=0;collapsible=0;recursiveResize=0;outlineConnect=0;portConstraint=eastwest;newEdgeStyle={&quot;edgeStyle&quot;:&quot;elbowEdgeStyle&quot;,&quot;elbow&quot;:&quot;vertical&quot;,&quot;curved&quot;:0,&quot;rounded&quot;:0};" vertex="1" parent="1">
          <mxGeometry x="220" y="60" width="100" height="300" as="geometry" />
        </mxCell>
        <mxCell id="yk0mpAlITT_TZb8OycYt-4" value="" style="html=1;points=[];perimeter=orthogonalPerimeter;outlineConnect=0;targetShapes=umlLifeline;portConstraint=eastwest;newEdgeStyle={&quot;edgeStyle&quot;:&quot;elbowEdgeStyle&quot;,&quot;elbow&quot;:&quot;vertical&quot;,&quot;curved&quot;:0,&quot;rounded&quot;:0};" vertex="1" parent="yk0mpAlITT_TZb8OycYt-3">
          <mxGeometry x="45" y="90" width="10" height="40" as="geometry" />
        </mxCell>
        <mxCell id="yk0mpAlITT_TZb8OycYt-5" value="" style="html=1;points=[[0,0,0,0,5],[0,1,0,0,-5],[1,0,0,0,5],[1,1,0,0,-5]];perimeter=orthogonalPerimeter;outlineConnect=0;targetShapes=umlLifeline;portConstraint=eastwest;newEdgeStyle={&quot;curved&quot;:0,&quot;rounded&quot;:0};" vertex="1" parent="yk0mpAlITT_TZb8OycYt-3">
          <mxGeometry x="45" y="220" width="10" height="30" as="geometry" />
        </mxCell>
        <mxCell id="yk0mpAlITT_TZb8OycYt-6" value="Store session locally" style="html=1;align=left;spacingLeft=2;endArrow=block;rounded=0;edgeStyle=orthogonalEdgeStyle;curved=0;rounded=0;" edge="1" parent="yk0mpAlITT_TZb8OycYt-3" target="yk0mpAlITT_TZb8OycYt-5">
          <mxGeometry relative="1" as="geometry">
            <mxPoint x="50" y="200" as="sourcePoint" />
            <Array as="points">
              <mxPoint x="80" y="230" />
            </Array>
          </mxGeometry>
        </mxCell>
        <mxCell id="yk0mpAlITT_TZb8OycYt-7" value="" style="html=1;points=[[0,0,0,0,5],[0,1,0,0,-5],[1,0,0,0,5],[1,1,0,0,-5]];perimeter=orthogonalPerimeter;outlineConnect=0;targetShapes=umlLifeline;portConstraint=eastwest;newEdgeStyle={&quot;curved&quot;:0,&quot;rounded&quot;:0};" vertex="1" parent="yk0mpAlITT_TZb8OycYt-3">
          <mxGeometry x="45" y="190" width="10" height="10" as="geometry" />
        </mxCell>
        <mxCell id="yk0mpAlITT_TZb8OycYt-8" value="Enters email &amp;amp; password" style="html=1;verticalAlign=bottom;endArrow=block;edgeStyle=elbowEdgeStyle;elbow=horizontal;curved=0;rounded=0;" edge="1" parent="1" source="yk0mpAlITT_TZb8OycYt-2">
          <mxGeometry relative="1" as="geometry">
            <mxPoint x="195" y="130" as="sourcePoint" />
            <Array as="points">
              <mxPoint x="180" y="120" />
            </Array>
            <mxPoint x="270" y="120" as="targetPoint" />
          </mxGeometry>
        </mxCell>
        <mxCell id="yk0mpAlITT_TZb8OycYt-9" value=":Supabase" style="shape=umlLifeline;perimeter=lifelinePerimeter;whiteSpace=wrap;html=1;container=0;dropTarget=0;collapsible=0;recursiveResize=0;outlineConnect=0;portConstraint=eastwest;newEdgeStyle={&quot;edgeStyle&quot;:&quot;elbowEdgeStyle&quot;,&quot;elbow&quot;:&quot;vertical&quot;,&quot;curved&quot;:0,&quot;rounded&quot;:0};" vertex="1" parent="1">
          <mxGeometry x="450" y="60" width="100" height="300" as="geometry" />
        </mxCell>
        <mxCell id="yk0mpAlITT_TZb8OycYt-10" value="" style="html=1;points=[];perimeter=orthogonalPerimeter;outlineConnect=0;targetShapes=umlLifeline;portConstraint=eastwest;newEdgeStyle={&quot;edgeStyle&quot;:&quot;elbowEdgeStyle&quot;,&quot;elbow&quot;:&quot;vertical&quot;,&quot;curved&quot;:0,&quot;rounded&quot;:0};" vertex="1" parent="yk0mpAlITT_TZb8OycYt-9">
          <mxGeometry x="45" y="130" width="10" height="10" as="geometry" />
        </mxCell>
        <mxCell id="yk0mpAlITT_TZb8OycYt-11" value="" style="html=1;points=[[0,0,0,0,5],[0,1,0,0,-5],[1,0,0,0,5],[1,1,0,0,-5]];perimeter=orthogonalPerimeter;outlineConnect=0;targetShapes=umlLifeline;portConstraint=eastwest;newEdgeStyle={&quot;curved&quot;:0,&quot;rounded&quot;:0};" vertex="1" parent="yk0mpAlITT_TZb8OycYt-9">
          <mxGeometry x="45" y="170" width="10" height="40" as="geometry" />
        </mxCell>
        <mxCell id="yk0mpAlITT_TZb8OycYt-12" value="Verifies crendentials" style="html=1;align=left;spacingLeft=2;endArrow=block;rounded=0;edgeStyle=orthogonalEdgeStyle;curved=0;rounded=0;" edge="1" parent="yk0mpAlITT_TZb8OycYt-9" source="yk0mpAlITT_TZb8OycYt-10" target="yk0mpAlITT_TZb8OycYt-11">
          <mxGeometry relative="1" as="geometry">
            <mxPoint x="60" y="140" as="sourcePoint" />
            <Array as="points">
              <mxPoint x="90" y="135" />
              <mxPoint x="90" y="170" />
            </Array>
          </mxGeometry>
        </mxCell>
        <mxCell id="yk0mpAlITT_TZb8OycYt-13" value="" style="endArrow=classic;html=1;rounded=0;" edge="1" parent="1" source="yk0mpAlITT_TZb8OycYt-2">
          <mxGeometry width="50" height="50" relative="1" as="geometry">
            <mxPoint x="90" y="150" as="sourcePoint" />
            <mxPoint x="265" y="150" as="targetPoint" />
          </mxGeometry>
        </mxCell>
        <mxCell id="yk0mpAlITT_TZb8OycYt-14" value="Clicks Create Account" style="edgeLabel;html=1;align=center;verticalAlign=middle;resizable=0;points=[];" vertex="1" connectable="0" parent="yk0mpAlITT_TZb8OycYt-13">
          <mxGeometry x="-0.0256" relative="1" as="geometry">
            <mxPoint x="5" y="-10" as="offset" />
          </mxGeometry>
        </mxCell>
        <mxCell id="yk0mpAlITT_TZb8OycYt-15" value="" style="endArrow=classic;html=1;rounded=0;" edge="1" parent="1" source="yk0mpAlITT_TZb8OycYt-3" target="yk0mpAlITT_TZb8OycYt-10">
          <mxGeometry width="50" height="50" relative="1" as="geometry">
            <mxPoint x="280" y="160" as="sourcePoint" />
            <mxPoint x="480" y="170" as="targetPoint" />
            <Array as="points">
              <mxPoint x="380" y="190" />
            </Array>
          </mxGeometry>
        </mxCell>
        <mxCell id="yk0mpAlITT_TZb8OycYt-16" value="Create account with password and email" style="edgeLabel;html=1;align=center;verticalAlign=middle;resizable=0;points=[];" vertex="1" connectable="0" parent="yk0mpAlITT_TZb8OycYt-15">
          <mxGeometry x="0.0365" y="-2" relative="1" as="geometry">
            <mxPoint x="-6" y="-12" as="offset" />
          </mxGeometry>
        </mxCell>
        <mxCell id="yk0mpAlITT_TZb8OycYt-17" value="" style="endArrow=classic;html=1;rounded=0;" edge="1" parent="1" source="yk0mpAlITT_TZb8OycYt-11">
          <mxGeometry width="50" height="50" relative="1" as="geometry">
            <mxPoint x="490" y="250" as="sourcePoint" />
            <mxPoint x="269.92857142857144" y="250" as="targetPoint" />
          </mxGeometry>
        </mxCell>
        <mxCell id="yk0mpAlITT_TZb8OycYt-18" value="Return success with session object" style="edgeLabel;html=1;align=center;verticalAlign=middle;resizable=0;points=[];" vertex="1" connectable="0" parent="yk0mpAlITT_TZb8OycYt-17">
          <mxGeometry x="0.0149" y="4" relative="1" as="geometry">
            <mxPoint y="-14" as="offset" />
          </mxGeometry>
        </mxCell>
        <mxCell id="yk0mpAlITT_TZb8OycYt-19" value="" style="endArrow=classic;html=1;rounded=0;" edge="1" parent="1" source="yk0mpAlITT_TZb8OycYt-3" target="yk0mpAlITT_TZb8OycYt-1">
          <mxGeometry width="50" height="50" relative="1" as="geometry">
            <mxPoint x="280" y="290" as="sourcePoint" />
            <mxPoint x="330" y="240" as="targetPoint" />
            <Array as="points">
              <mxPoint x="200" y="310" />
            </Array>
          </mxGeometry>
        </mxCell>
        <mxCell id="yk0mpAlITT_TZb8OycYt-20" value="Navigate to home scree&amp;nbsp; n" style="edgeLabel;html=1;align=center;verticalAlign=middle;resizable=0;points=[];" vertex="1" connectable="0" parent="yk0mpAlITT_TZb8OycYt-19">
          <mxGeometry x="-0.0156" relative="1" as="geometry">
            <mxPoint y="-10" as="offset" />
          </mxGeometry>
        </mxCell>
      </root>
    </mxGraphModel>
  </diagram>
</mxfile>
